<svg xmlns="http://www.w3.org/2000/svg" width="500" height="500" viewBox="0 0 500 500" version="1.1"><path d="M 293 258 C 293 419.587, 293.005 420, 295.009 420 C 296.115 420, 302.752 418.644, 309.759 416.986 C 316.767 415.329, 332.175 411.680, 344 408.877 C 355.825 406.075, 371.125 402.458, 378 400.840 C 384.875 399.223, 394.212 397.022, 398.750 395.950 C 403.288 394.877, 410.825 393.100, 415.500 392 C 420.175 390.900, 427.712 389.123, 432.250 388.050 C 445.771 384.855, 466.334 380.023, 468.791 379.463 C 470.051 379.176, 470.812 378.505, 470.482 377.971 C 470.102 377.356, 440.547 377, 389.941 377 L 310 377 310 236.500 L 310 96 301.500 96 L 293 96 293 258 M 321 125 L 321 154 397.500 154 L 474 154 474 125 L 474 96 397.500 96 L 321 96 321 125 M 321.235 194.750 L 321.500 223.500 397.750 223.756 L 474 224.012 474 195.006 L 474 166 397.485 166 L 320.969 166 321.235 194.750 M 321.667 236.667 C 321.300 237.033, 321 250.083, 321 265.667 L 321 294 397.500 294 L 474 294 474 265 L 474 236 398.167 236 C 356.458 236, 322.033 236.300, 321.667 236.667 M 321.235 334.750 L 321.500 363.500 397.750 363.756 L 474 364.012 474 335.006 L 474 306 397.485 306 L 320.969 306 321.235 334.750" stroke="none" fill="#e2041c" fill-rule="evenodd"/><path d="M 113.500 138.011 C 76.383 145.609, 45.659 171.116, 31.897 205.759 C 20.060 235.558, 21.687 269.148, 36.342 297.500 C 51.674 327.162, 80.050 348.560, 113.239 355.483 C 122.774 357.473, 147.446 357.510, 156.769 355.549 C 172.695 352.198, 188.408 345.241, 201 335.963 C 207.609 331.094, 219.565 319.541, 222.695 315 C 223.643 313.625, 224.993 311.912, 225.694 311.193 C 227.440 309.406, 233.027 299.689, 236.187 292.944 C 241.712 281.153, 247.328 257.903, 245.686 253.623 C 245.142 252.205, 242.684 252, 226.255 252 C 197.041 252, 185.771 254.117, 172.360 262.123 C 166.872 265.399, 154 277.220, 154 278.984 C 154 279.464, 153.438 280.460, 152.750 281.197 C 148.182 286.093, 143.219 299.934, 142.367 310.156 C 141.806 316.874, 141.250 318.840, 139.384 320.706 C 136.514 323.577, 135.486 323.577, 132.619 320.710 C 130.783 318.874, 130.198 316.873, 129.670 310.627 C 128.416 295.793, 122.159 282.506, 111.327 271.673 C 100.519 260.866, 88.398 255.043, 72.340 252.942 C 67.273 252.279, 62.753 251.125, 61.750 250.238 C 57.606 246.573, 61.235 241, 67.765 241 C 69.590 241, 74.553 240.295, 78.792 239.433 C 106.307 233.840, 127.336 210.389, 129.643 182.726 C 130.346 174.300, 132.081 171, 135.809 171 C 139.818 171, 141.146 173.323, 142.122 182.043 C 142.641 186.686, 143.678 192.543, 144.425 195.060 C 151.072 217.441, 170.678 235.165, 193.654 239.561 C 198.806 240.547, 208.238 241, 223.588 241 L 246 241 246 237.750 C 246 235.963, 245.328 230.988, 244.506 226.695 C 235.701 180.679, 200.111 145.603, 154 137.497 C 142.555 135.485, 124.735 135.711, 113.500 138.011 M 470.800 378.200 C 471.733 379.133, 472.267 379.133, 473.200 378.200 C 474.133 377.267, 473.867 377, 472 377 C 470.133 377, 469.867 377.267, 470.800 378.200" stroke="none" fill="#242424" fill-rule="evenodd"/></svg>